<svg fill="#ffffff" viewBox="0 0 512 512" version="1.1" xml:space="preserve" xmlns="http://www.w3.org/2000/svg" xmlns:xlink="http://www.w3.org/1999/xlink" stroke="#ffffff"><g id="SVGRepo_bgCarrier" stroke-width="0"></g><g id="SVGRepo_tracerCarrier" stroke-linecap="round" stroke-linejoin="round"></g><g id="SVGRepo_iconCarrier"> <g id="Barrier"> <g id="XMLID_332_"> <path d="M90,13.566c0-3.161-1.356-6.071-3.477-8.192c-1.551-1.55-4.16-3.397-8.035-3.397 C72.125,1.977,67,7.175,67,13.566V47h23V13.566z" id="XMLID_335_"></path> <polygon id="XMLID_336_" points="183.307,176 117.863,67 52.664,67 118.108,176 "></polygon> <polygon id="XMLID_337_" points="29.446,67 2,67 2,176 94.89,176 "></polygon> <rect height="45" id="XMLID_338_" width="23" x="67" y="196"></rect> <rect height="45" id="XMLID_339_" width="23" x="422" y="196"></rect> <path d="M445,13.566c0-3.152-1.029-6.061-3.16-8.193c-1.549-1.549-4.328-3.396-8.217-3.396 C427.278,1.977,422,7.175,422,13.566V47h23V13.566z" id="XMLID_340_"></path> <polygon id="XMLID_341_" points="448.56,176 383.116,67 317.917,67 383.361,176 "></polygon> <polygon id="XMLID_342_" points="360.142,176 294.698,67 229.499,67 294.944,176 "></polygon> <polygon id="XMLID_343_" points="271.725,176 206.28,67 141.081,67 206.525,176 "></polygon> <path d="M56.748,369.614c0.945,0,1.856,0.386,2.723,0.386h35.42L29.446,261H2v109h52.025 C54.891,370,55.802,369.614,56.748,369.614z" id="XMLID_344_"></path> <polygon id="XMLID_345_" points="141.081,261 206.525,370 271.725,370 206.28,261 "></polygon> <path d="M455.252,487h-42.839c-0.775,0-1.526,0-2.25,0H389v23h89v-23h-20.498 C456.778,487,456.027,487,455.252,487z" id="XMLID_346_"></path> <rect height="77" id="XMLID_347_" width="23" x="422" y="390"></rect> <polygon id="XMLID_348_" points="406.334,261 471.778,370 510,370 510,261 "></polygon> <polygon id="XMLID_349_" points="406.334,67 471.778,176 510,176 510,67 "></polygon> <path d="M412.413,369.614c0.945,0,1.856,0.386,2.723,0.386h33.424l-65.444-109h-65.199l65.444,109h26.33 C410.557,370,411.468,369.614,412.413,369.614z" id="XMLID_350_"></path> <path d="M53.946,261h-1.281l65.444,109h65.199l-65.444-109C117.863,261,54.835,261,53.946,261z" id="XMLID_351_"></path> <path d="M99.587,487H56.748c-0.775,0-1.526,0-2.25,0H34v23h88v-23h-20.163C101.113,487,100.362,487,99.587,487z" id="XMLID_352_"></path> <polygon id="XMLID_353_" points="229.499,261 294.943,370 360.143,370 294.699,261 "></polygon> <rect height="77" id="XMLID_354_" width="23" x="67" y="390"></rect> </g> </g> <g id="Layer_1"></g> </g></svg>